
<svg id="Layer_1" version="1.1" xmlns="http://www.w3.org/2000/svg" xmlns:xlink='http://www.w3.org/1999/xlink' x='0px' y='0px' width = '400px' height = '400px' viewBox = '0 0 400 400' enable-background= '0 0 400 400' xml:space= 'pr ' >
    <g>

	<path xmlns="http://www.w3.org/2000/svg" fill-rule="evenodd" clip-rule="evenodd" fill="#EC2227" d="M133.549,242.216c-20.048,17.817-40.931,34.804-61.6,52.001   c-5.623-15.612-10.502-30.149-17.067-44.001c-6.577-13.879-14.816-26.872-16.533-44.801c0-2.488,0-4.976,0-7.465   c2.266-16.794,11.699-27.925,17.867-41.6c6.141-13.615,10.733-28.075,15.733-43.734c20.931,16.759,41.357,34.021,61.6,51.467   l5.866-5.6c-17.83-20.036-34.804-40.929-52-61.6c15.129-5.973,29.741-9.792,44-16.8c13.489-6.63,27.862-15.575,44.8-16.8   c2.4,0,4.8,0,7.201,0c17.013,1.798,28.224,12.006,41.599,18.133c13.928,6.38,28.536,10.104,44.268,15.467   c-16.94,20.749-34.348,41.03-51.467,61.6l5.333,5.6c20.291-17.398,40.658-34.72,61.6-51.467   c5.248,15.544,9.324,30.209,15.734,43.734c6.391,13.485,15.463,24.922,17.865,41.6c0,2.311,0,4.622,0,6.933   c-1.146,18.203-10.094,31.149-16.533,44.8c-6.658,14.117-11.004,28.807-17.066,44.267c-20.902-16.875-41.522-34.032-61.6-51.733   l-5.601,5.867c17.629,20.149,34.645,40.911,51.734,61.6c-15.552,5.472-30.279,8.935-44,15.467   c-13.334,6.348-24.802,15.976-41.601,18.133c-2.488,0-4.977,0-7.466,0c-17.907-1.467-30.817-10.133-44.533-16.533   c-14.081-6.571-28.623-11.283-44.267-17.066c17.199-20.667,34.106-41.627,52-61.6L133.549,242.216z M209.016,91.549   c-7.905-4.193-20.417-13.737-32.801-12c-12.383,1.737-21.979,7.096-31.733,12c-9.6,4.827-18.771,9.511-30.133,12.534   c9.377,11.156,19.027,22.04,28.8,32.8c9.32-4.232,21.499-8.933,34.933-8.8c13.412,0.132,25.905,3.976,35.467,8.267   c9.082-10.118,17.979-20.42,26.399-31.2C229.042,101.741,219.562,97.144,209.016,91.549z M67.148,170.483   c-4.635,8.699-11.723,18.026-12.533,29.333c-1.15,16.062,6.714,26.376,12,37.066c4.77,9.644,9.127,18.563,12.267,29.866   c3.215-1.393,5.583-4.342,8.267-6.667c8.368-7.25,16.822-14.543,24.8-21.866c-3.859-8.485-8.137-19.488-8.8-31.467   c-0.82-14.799,3.764-28.588,8.267-38.933c-9.913-9.465-20.888-17.868-31.2-26.933C77.293,150.959,72.292,160.83,67.148,170.483z    M244.75,167.55c4.707,10.757,9.233,24.714,8.267,40.266c-0.719,11.572-5.259,22.072-8.533,30.668   c10.938,9.506,21.482,19.404,32.799,28.532c3.045-11.598,7.984-21.091,13.068-31.2c4.83-9.607,11.535-19.978,11.465-32.8   c-0.035-6.467-2.145-11.946-4.533-17.066c-7.041-15.088-16.318-27.882-21.066-44.533c-0.016-0.163-0.039-0.316-0.266-0.267   C265.37,149.769,255.081,158.681,244.75,167.55z M168.216,168.35c-5.997,2.272-12.583,5.255-20.8,3.733   c-3.052,7.848,0.735,16.43,7.2,18.133c2.511-3.089,4.729-6.471,8.8-8c1.179,1.221,2.022,2.777,2.933,4.267   c1.337-0.085,1.125-1.719,2.667-1.6c1.929,0.59,3.117,3.241,5.066,2.933c-0.211-3.005-2.347-6.351-3.467-9.333   c0.237-0.653,1.489-0.289,1.333-1.333C170.896,174.025,169.677,171.066,168.216,168.35z M188.482,168.35   c-1.445,2.821-2.824,5.709-3.733,9.067c0.05,0.84,1.437,0.341,1.333,1.333c-1.579,2.954-2.88,6.187-4,9.6   c1.68,1.343,3.317,2.728,5.333,3.733c1.558-3.775,3.446-7.22,6.134-9.867c3.875,1.725,6.052,5.148,8.8,8   c6.237-1.85,9.987-10.362,6.933-18.133C201.07,173.601,194.436,170.666,188.482,168.35z M160.749,195.816   c0.665-0.846,1.677-1.346,2.133-2.4c0.339,0.347,1.479,2.22,1.6,1.067c0.001-0.89-0.868-0.911-0.8-1.866   c3.558-2.072,7.315-1.599,9.333,1.6c-0.615,0.363-1.488,0.467-1.333,1.6c0.835,0.106,1.473-1.348,1.867-0.8   c2.88,3.029,1.397,6.97-1.333,9.067c-0.363-0.615-0.468-1.488-1.601-1.333c0.062,1.003,1.005,1.128,1.067,2.133   c-3.549,2.239-6.833,1.615-9.333-1.334c0.199-0.779,1.44-0.516,1.333-1.6c-0.754-0.621-1.136,0.839-2.133,0.801   c0.121-1.277-0.29-2.022-1.066-2.4c-0.124,1.298-1.168,1.677-1.333,2.933c0.227,0.751,0.861,1.095,0.8,2.133   c-1.16,1.508-3.63,1.704-4.534,3.467c-1.564,6.894,8.803,6.853,14.667,6.4c6.693-0.516,13.836-4.712,20.8-4.8   c6.842-0.087,10.736,2.789,16.533,4.267c1.557-2.337,1.295-5.343,0-6.934c-5.475-6.721-27.505-3.781-34.667-1.066   c4.438-3.74,12.859-3.496,20.534-3.999c-3.619-7.315-8.668-13.2-17.333-15.467c-0.919,0.504-1.3,1.545-2.4,1.867   c-1.789-0.877-3.004-2.329-4.8-3.2c-1.731,2.002-3.898,3.569-6.667,4.534C162.003,192.452,160.674,194.582,160.749,195.816z    M182.349,213.416c-3.107,1.07-6.551,1.806-9.867,2.667c-4.431,4.991-7.542,11.302-14.934,13.333c0.014,3.973,2.49,9.333,5.333,8.8   c1.425-0.267,2.426-4.016,3.467-5.6c3.634-5.534,9.187-10.972,12.267-14.934c2.026,3.704,5.008,6.727,7.466,10.133   c2.482,3.441,4.106,7.431,6.933,10.668c3.14-1.572,5.041-4.383,5.068-9.067C189.554,227.366,187.304,219.038,182.349,213.416z    M117.549,298.216c-1.178,1.347-2.949,2.866-2.667,4c10.737,3.235,20.209,7.811,30.133,12.801   c9.562,4.807,19.27,11.091,31.2,11.732c14.507,0.78,24.097-7.304,33.867-12.532c9.595-5.136,18.924-9.5,29.866-13.067   c-7.947-10.188-17.41-21.167-26.399-31.2c-9.458,4.32-21.857,8.127-35.201,8.267c-13.493,0.142-25.506-4.406-34.933-8.533   c-0.178,0-0.355,0-0.534,0C134.719,278.876,125.537,289.084,117.549,298.216z"/>
	<path xmlns="http://www.w3.org/2000/svg" fill-rule="evenodd" clip-rule="evenodd" fill="#FFFFFF" d="M239.949,105.149c-8.42,10.78-17.317,21.083-26.399,31.2   c-9.562-4.291-22.055-8.134-35.467-8.267c-13.434-0.133-25.613,4.568-34.933,8.8c-9.773-10.76-19.423-21.644-28.8-32.8   c11.362-3.022,20.533-7.707,30.133-12.534c9.754-4.904,19.351-10.263,31.733-12c12.384-1.737,24.896,7.807,32.801,12   C219.562,97.144,229.042,101.741,239.949,105.149z"/>
	<path xmlns="http://www.w3.org/2000/svg" fill-rule="evenodd" clip-rule="evenodd" fill="#FFFFFF" d="M80.215,140.883c10.312,9.065,21.287,17.468,31.2,26.933   c-4.503,10.345-9.086,24.134-8.267,38.933c0.663,11.979,4.941,22.981,8.8,31.467c-7.978,7.323-16.432,14.616-24.8,21.866   c-2.684,2.325-5.051,5.274-8.267,6.667c-3.14-11.303-7.497-20.223-12.267-29.866c-5.286-10.69-13.15-21.004-12-37.066   c0.81-11.307,7.898-20.634,12.533-29.333C72.292,160.83,77.293,150.959,80.215,140.883z M87.416,164.883   c-1.987,6.902-3.124,14.654-5.333,21.333c-2.832-6.946-4.27-15.286-8.8-20.533c0.144,1.457,0.39,2.81,0.534,4.266   c-2.999-0.217-4.868,2.03-4.534,4.267c1.558,0.251,1.632-1.535,3.734-1.333c2.653,0.254,3.754,5.155,4.8,8   c1.203,3.275,3.305,6.523,3.467,9.6c0.181,3.45-1.773,8.325-2.667,12.267c-2.713,11.962-5.694,25.936-8,36.8   c2.312,0,4.623,0,6.934,0c0.242-1.625,0.491-3.243,1.067-4.533c1.689,0,3.377,0,5.066,0c-0.535,1.331-0.532,3.2-1.067,4.533   c2.311,0,4.622,0,6.934,0c1.657-6.076,2.771-12.695,4.533-18.668c1.401,4.452,3.448,9.234,5.067,13.601   c0.499,1.346,0.55,3.986,2.934,3.467c0.018-4.059-1.849-7.294-3.201-10.934c-1.022-2.753-3.904-8.038-4-10.933   c-0.053-1.61,1.099-3.907,1.601-6.134c3.408-15.129,6.729-30.568,9.866-45.066c-2.222,0-4.444,0-6.667,0   c-0.503,1.363-0.478,3.256-1.333,4.267c-1.515-0.174-3.729,0.35-4.8-0.267c-0.008-1.518,0.678-2.345,0.533-4   C91.86,164.883,89.638,164.883,87.416,164.883z"/>
	<path xmlns="http://www.w3.org/2000/svg" fill-rule="evenodd" clip-rule="evenodd" fill="#FFFFFF" d="M275.95,141.149c0.227-0.049,0.25,0.104,0.266,0.267   c4.748,16.651,14.025,29.445,21.066,44.533c2.389,5.12,4.498,10.599,4.533,17.066c0.07,12.822-6.635,23.192-11.465,32.8   c-5.084,10.109-10.023,19.603-13.068,31.2c-11.316-9.128-21.861-19.026-32.799-28.532c3.274-8.596,7.814-19.096,8.533-30.668   c0.967-15.551-3.56-29.508-8.267-40.266C255.081,158.681,265.37,149.769,275.95,141.149z M268.216,170.216   c-6.11,0.201-7.892,4.731-8.267,10.667c-0.889,0-1.777,0-2.668,0c0,1.6,0,3.2,0,4.8c0.725,0.165,2.117-0.339,2.4,0.267   c0,12.267,0,24.533,0,36.799c-0.621,0-1.244,0-1.866,0c0,1.334,0,2.666,0,4c-0.505,0.118-1.606-0.362-1.333,0.534   c-0.643,3.548-1.502,8.261-1.6,11.466c10.666,0,21.332,0,32,0c-0.053-3.342-0.957-8.1-1.602-11.733   c0.121-0.742-1.453,0.21-1.334-0.533c0-1.244,0-2.488,0-3.733c-0.551-0.158-1.75,0.329-1.865-0.267c0-12.267,0-24.533,0-36.799   c0.623,0,1.244,0,1.865,0c0-1.6,0-3.2,0-4.8c-0.637-0.163-1.934,0.334-2.133-0.267c-0.467-5.933-2.488-10.311-8.799-10.4   c0-0.889,0-1.778,0-2.667c-1.6,0-3.201,0-4.8,0C268.216,168.438,268.216,169.328,268.216,170.216z"/>
	<path xmlns="http://www.w3.org/2000/svg" fill-rule="evenodd" clip-rule="evenodd" fill="#EC2227" d="M94.082,164.883c0.145,1.655-0.541,2.481-0.533,4   c1.071,0.617,3.285,0.093,4.8,0.267c0.856-1.011,0.83-2.904,1.333-4.267c2.222,0,4.444,0,6.667,0   c-3.138,14.498-6.458,29.937-9.866,45.066c-0.502,2.227-1.654,4.523-1.601,6.134c0.096,2.895,2.978,8.18,4,10.933   c1.352,3.64,3.219,6.875,3.201,10.934c-2.383,0.52-2.435-2.121-2.934-3.467c-1.619-4.366-3.666-9.148-5.067-13.601   c-1.762,5.973-2.876,12.592-4.533,18.668c-2.312,0-4.623,0-6.934,0c0.535-1.333,0.532-3.202,1.067-4.533c-1.689,0-3.377,0-5.066,0   c-0.576,1.29-0.825,2.908-1.067,4.533c-2.311,0-4.622,0-6.934,0c2.307-10.864,5.288-24.838,8-36.8   c0.894-3.942,2.848-8.817,2.667-12.267c-0.162-3.077-2.264-6.325-3.467-9.6c-1.045-2.845-2.146-7.747-4.8-8   c-2.102-0.201-2.176,1.584-3.734,1.333c-0.334-2.237,1.535-4.484,4.534-4.267c-0.144-1.457-0.39-2.81-0.534-4.266   c4.531,5.247,5.968,13.587,8.8,20.533c2.209-6.679,3.347-14.431,5.333-21.333C89.638,164.883,91.86,164.883,94.082,164.883z    M88.749,167.816c-4.818,23.182-10.429,45.571-15.2,68.799c0.889,0,1.778,0,2.667,0c0.56-1.396,0.415-3.496,1.333-4.533   c2.311,0,4.622,0,6.933,0c0.142-0.746,0.392-1.386,0.533-2.133c-2.312-0.176-5.331,0.354-7.2-0.267   c0.524-1.965,0.608-4.37,1.6-5.866c2.312,0,4.623,0,6.934,0c0.279-0.61,0.169-1.609,0.534-2.134   c-2.313-0.177-5.331,0.353-7.2-0.267c0.504-2.073,0.713-4.442,1.6-6.134c2.619-0.492,7.609,1.388,7.466-1.866   c-2.313-0.176-5.331,0.354-7.2-0.268c0.549-2.028,0.647-4.508,1.601-6.133c2.619-0.492,7.61,1.388,7.466-1.866   c-2.312-0.177-5.331,0.353-7.2-0.267c0.548-2.029,0.647-4.509,1.6-6.133c2.598-0.514,7.64,1.417,7.467-1.867   c-2.313-0.176-5.332,0.354-7.2-0.267c0.477-2.101,0.679-4.476,1.6-6.133c2.598-0.514,7.639,1.417,7.466-1.867   c-2.313-0.176-5.331,0.354-7.2-0.267c0.51-2.069,0.608-4.548,1.6-6.133c2.331-0.158,5.307,0.329,7.2-0.267   c-0.213-0.925,0.398-1.025,0.267-1.867c-2.313-0.176-5.331,0.353-7.2-0.267c0.607-1.881,0.591-4.387,1.6-5.867   c2.331-0.158,5.307,0.329,7.2-0.267c-0.214-0.925,0.397-1.025,0.267-1.867c-2.312-0.176-5.331,0.353-7.2-0.267   c0.243-1.269,0.603-2.419,0.8-3.734C90.704,167.816,89.727,167.816,88.749,167.816z M85.015,236.615c0.889,0,1.778,0,2.667,0   c5.559-22.619,10.32-46.034,15.734-68.799c-0.889,0-1.778,0-2.667,0C95.111,190.356,90.323,213.747,85.015,236.615z"/>
	<path xmlns="http://www.w3.org/2000/svg" fill-rule="evenodd" clip-rule="evenodd" fill="#EC2227" d="M268.216,167.55c1.599,0,3.2,0,4.8,0c0,0.889,0,1.778,0,2.667   c6.311,0.089,8.332,4.467,8.799,10.4c0.199,0.602,1.496,0.104,2.133,0.267c0,1.6,0,3.2,0,4.8c-0.621,0-1.242,0-1.865,0   c0,12.267,0,24.533,0,36.799c0.115,0.596,1.314,0.108,1.865,0.267c0,1.245,0,2.489,0,3.733c-0.119,0.743,1.455-0.209,1.334,0.533   c0.645,3.634,1.549,8.392,1.602,11.733c-10.668,0-21.334,0-32,0c0.098-3.205,0.957-7.918,1.6-11.466   c-0.273-0.896,0.828-0.416,1.333-0.534c0-1.334,0-2.666,0-4c0.622,0,1.245,0,1.866,0c0-12.267,0-24.533,0-36.799   c-0.283-0.605-1.676-0.102-2.4-0.267c0-1.6,0-3.2,0-4.8c0.891,0,1.779,0,2.668,0c0.375-5.936,2.156-10.466,8.267-10.667   C268.216,169.328,268.216,168.438,268.216,167.55z M265.282,185.683c0,3.467,0,6.934,0,10.399   c-1.971,2.887-3.006,4.968-2.933,8.266c0.081,3.699,2.391,5.308,2.933,7.733c0.793,3.543-0.584,6.842,0,10.667   c0.979,0,1.955,0,2.935,0c0-3.022,0-6.045,0-9.066c1.223,0.712,3.95-0.139,4.8,0.267c0,2.934,0,5.866,0,8.8   c0.977,0,1.955,0,2.934,0c0-3.733,0-7.467,0-11.199c2.463-2.383,3.577-8.003,2.133-12c-0.438-1.209-1.819-2.122-2.133-3.467   c-0.818-3.502,0.606-6.734,0-10.399c-0.979,0-1.957,0-2.934,0c0,2.844,0,5.689,0,8.533c-1.158-0.647-4.055,0.035-4.8-0.267   c0-2.756,0-5.511,0-8.267C267.237,185.683,266.26,185.683,265.282,185.683z"/>
	<path xmlns="http://www.w3.org/2000/svg" fill-rule="evenodd" clip-rule="evenodd" fill="#FFFFFF" d="M91.682,167.816c-0.197,1.315-0.557,2.465-0.8,3.734   c1.869,0.62,4.887,0.09,7.2,0.267c0.13,0.841-0.48,0.942-0.267,1.867c-1.894,0.595-4.869,0.108-7.2,0.267   c-1.009,1.479-0.993,3.985-1.6,5.867c1.869,0.62,4.887,0.091,7.2,0.267c0.131,0.842-0.48,0.942-0.267,1.867   c-1.893,0.595-4.869,0.108-7.2,0.267c-0.992,1.585-1.09,4.064-1.6,6.133c1.869,0.62,4.887,0.09,7.2,0.267   c0.173,3.284-4.869,1.353-7.466,1.867c-0.921,1.657-1.124,4.032-1.6,6.133c1.869,0.62,4.887,0.09,7.2,0.267   c0.172,3.284-4.87,1.353-7.467,1.867c-0.953,1.624-1.051,4.104-1.6,6.133c1.869,0.619,4.887,0.09,7.2,0.267   c0.144,3.254-4.848,1.374-7.466,1.866c-0.953,1.625-1.052,4.104-1.601,6.133c1.869,0.621,4.887,0.092,7.2,0.268   c0.143,3.254-4.848,1.374-7.466,1.866c-0.887,1.691-1.096,4.061-1.6,6.134c1.869,0.619,4.887,0.09,7.2,0.267   c-0.364,0.524-0.254,1.523-0.534,2.134c-2.311,0-4.622,0-6.934,0c-0.992,1.496-1.075,3.901-1.6,5.866   c1.869,0.62,4.887,0.091,7.2,0.267c-0.142,0.747-0.391,1.387-0.533,2.133c-2.311,0-4.623,0-6.933,0   c-0.918,1.037-0.774,3.138-1.333,4.533c-0.889,0-1.778,0-2.667,0c4.771-23.229,10.381-45.618,15.2-68.799   C89.727,167.816,90.704,167.816,91.682,167.816z"/>
	<path xmlns="http://www.w3.org/2000/svg" fill-rule="evenodd" clip-rule="evenodd" fill="#FFFFFF" d="M100.749,167.816c0.889,0,1.778,0,2.667,0   c-5.414,22.765-10.175,46.18-15.734,68.799c-0.889,0-1.777,0-2.667,0C90.323,213.747,95.111,190.356,100.749,167.816z"/>
	<path xmlns="http://www.w3.org/2000/svg" fill-rule="evenodd" clip-rule="evenodd" fill="#FFFFFF" d="M268.216,185.683c0,2.755,0,5.511,0,8.267   c0.745,0.301,3.642-0.38,4.8,0.267c0-2.844,0-5.689,0-8.533c0.977,0,1.955,0,2.934,0c0.606,3.666-0.818,6.897,0,10.399   c0.313,1.345,1.695,2.257,2.133,3.467c1.444,3.998,0.33,9.618-2.133,12c0,3.732,0,7.466,0,11.199c-0.979,0-1.957,0-2.934,0   c0-2.934,0-5.866,0-8.8c-0.85-0.405-3.577,0.445-4.8-0.267c0,3.021,0,6.044,0,9.066c-0.979,0-1.956,0-2.935,0   c-0.584-3.825,0.793-7.124,0-10.667c-0.542-2.426-2.852-4.034-2.933-7.733c-0.073-3.298,0.962-5.379,2.933-8.266   c0-3.466,0-6.933,0-10.399C266.26,185.683,267.237,185.683,268.216,185.683z M270.616,210.216   c6.053-0.037,6.148-14.111-1.066-12.266C264.385,199.27,264.864,210.251,270.616,210.216z"/>
	<path xmlns="http://www.w3.org/2000/svg" fill-rule="evenodd" clip-rule="evenodd" fill="#EC2227" d="M269.549,197.95c7.215-1.845,7.119,12.229,1.066,12.266   C264.864,210.251,264.385,199.27,269.549,197.95z"/>
	<path xmlns="http://www.w3.org/2000/svg" fill-rule="evenodd" clip-rule="evenodd" fill="#FFFFFF" d="M142.882,269.683c0.178,0,0.356,0,0.534,0   c9.427,4.127,21.44,8.675,34.933,8.533c13.343-0.14,25.743-3.946,35.201-8.267c8.989,10.033,18.452,21.013,26.399,31.2   c-10.942,3.567-20.271,7.932-29.866,13.067c-9.771,5.229-19.36,13.312-33.867,12.532c-11.93-0.642-21.638-6.926-31.2-11.732   c-9.924-4.99-19.396-9.565-30.133-12.801c-0.282-1.134,1.489-2.653,2.667-4C125.537,289.084,134.719,278.876,142.882,269.683z"/>
	<circle xmlns="http://www.w3.org/2000/svg" fill-rule="evenodd" clip-rule="evenodd" fill="#FFFFFF" cx="178.349" cy="203.283" r="50.614"/>
	<path xmlns="http://www.w3.org/2000/svg" fill-rule="evenodd" clip-rule="evenodd" fill="#ED1C24" d="M171.949,177.149c0.156,1.045-1.097,0.681-1.333,1.333   c1.12,2.982,3.255,6.328,3.467,9.333c-1.949,0.309-3.138-2.342-5.066-2.933c-1.542-0.12-1.33,1.515-2.667,1.6   c-0.911-1.489-1.754-3.045-2.933-4.267c-4.071,1.529-6.289,4.911-8.8,8c-6.465-1.704-10.252-10.285-7.2-18.133   c8.217,1.522,14.804-1.461,20.8-3.733C169.677,171.066,170.896,174.025,171.949,177.149z"/>
	<path xmlns="http://www.w3.org/2000/svg" fill-rule="evenodd" clip-rule="evenodd" fill="#ED1C24" d="M209.282,172.083c3.055,7.771-0.695,16.283-6.933,18.133   c-2.748-2.852-4.925-6.275-8.8-8c-2.688,2.646-4.576,6.091-6.134,9.867c-2.016-1.006-3.653-2.391-5.333-3.733   c1.12-3.413,2.42-6.646,4-9.6c0.103-0.993-1.284-0.494-1.333-1.333c0.909-3.358,2.288-6.246,3.733-9.067   C194.436,170.666,201.07,173.601,209.282,172.083z"/>
	<path xmlns="http://www.w3.org/2000/svg" fill-rule="evenodd" clip-rule="evenodd" fill="#ED1C24" d="M198.083,229.416c-0.027,4.685-1.929,7.495-5.068,9.067   c-2.827-3.237-4.451-7.227-6.933-10.668c-2.458-3.406-5.44-6.429-7.466-10.133c-3.081,3.962-8.633,9.399-12.267,14.934   c-1.041,1.584-2.042,5.333-3.467,5.6c-2.843,0.533-5.319-4.827-5.333-8.8c7.391-2.031,10.502-8.342,14.934-13.333   c3.316-0.861,6.759-1.597,9.867-2.667C187.304,219.038,189.554,227.366,198.083,229.416z"/>
	<path xmlns="http://www.w3.org/2000/svg" fill-rule="evenodd" clip-rule="evenodd" fill="#ED1C24" d="M162.083,190.483c2.769-0.965,4.935-2.532,6.667-4.534   c1.795,0.872,3.011,2.323,4.8,3.2c1.101-0.322,1.481-1.363,2.4-1.867c8.666,2.268,13.714,8.152,17.333,15.467   c-7.675,0.503-16.096,0.259-20.534,3.999c7.161-2.715,29.192-5.654,34.667,1.066c1.295,1.591,1.557,4.597,0,6.934   c-5.797-1.478-9.691-4.354-16.533-4.267c-6.964,0.088-14.107,4.284-20.8,4.8c-5.863,0.452-16.23,0.493-14.667-6.4   c0.903-1.763,3.374-1.959,4.534-3.467c0.061-1.038-0.573-1.382-0.8-2.133c0.166-1.256,1.21-1.635,1.333-2.933   c0.777,0.378,1.188,1.123,1.066,2.4c0.998,0.038,1.379-1.422,2.133-0.801c0.106,1.084-1.135,0.82-1.333,1.6   c2.5,2.949,5.784,3.573,9.333,1.334c-0.062-1.005-1.004-1.13-1.067-2.133c1.133-0.155,1.237,0.718,1.601,1.333   c2.73-2.097,4.213-6.038,1.333-9.067c-0.394-0.547-1.031,0.907-1.867,0.8c-0.155-1.133,0.719-1.237,1.333-1.6   c-2.019-3.198-5.775-3.672-9.333-1.6c-0.068,0.956,0.801,0.977,0.8,1.866c-0.121,1.153-1.261-0.72-1.6-1.067   c-0.456,1.055-1.468,1.555-2.133,2.4C160.674,194.582,162.003,192.452,162.083,190.483z"/>

    </g>
</svg>   
